<svg id="Layer_1" data-name="Layer 1" xmlns="http://www.w3.org/2000/svg" viewBox="0 0 231.77 205.23"><defs><style>.cls-1{fill:url(#linear-gradient)}</style><linearGradient id="linear-gradient" x1="128" y1="11.17" x2="128" y2="245.11" gradientUnits="userSpaceOnUse"><stop offset="0" stop-color="#fff"/><stop offset=".39" stop-color="#fff"/><stop offset="1" stop-color="#fff"/></linearGradient></defs><title>logo</title><path class="cls-1" d="M240.44 203.46l-34.2-59.24-29.36-50.84-34.2-59.24c-8.07-14-21.28-14-29.36 0l-34.2 59.24-29.36 50.85-34.2 59.24c-8.07 14-1.47 25.42 14.68 25.42h195.52c16.15 0 22.75-11.44 14.68-25.43zM128 206.17H57.75L128 165.62l-8.9-15.41L55 187.19l31-53.69 33.1-57.26v74l4.45 7.7 4.45 7.7 4.45-7.7 4.45-7.7v-74L170 133.5l31 53.69-64.06-37-8.94 15.43 70.25 40.56z" transform="translate(-12.12 -23.65)"/></svg>