<?xml version="1.0" encoding="UTF-8"?>
<svg width="41px" height="36px" viewBox="0 0 41 36" version="1.1" xmlns="http://www.w3.org/2000/svg" xmlns:xlink="http://www.w3.org/1999/xlink">
    <!-- Generator: Sketch 48.2 (47327) - http://www.bohemiancoding.com/sketch -->
    <title>Group 4</title>
    <desc>Created with Sketch.</desc>
    <defs>
        <polygon id="path-1" points="0 0 28 0 28 36 14 26 0 36"></polygon>
    </defs>
    <g id="integrate-email-error" stroke="none" stroke-width="1" fill="none" fill-rule="evenodd" transform="translate(-1263.000000, -3359.000000)">
        <g id="dark-section" transform="translate(0.000000, 3049.000000)">
            <g id="icons" transform="translate(405.000000, 306.000000)">
                <g id="feature" transform="translate(855.000000, 4.000000)">
                    <g id="Group-4" transform="translate(3.000000, 0.000000)">
                        <g id="Rectangle-27">
                            <use fill="#262B35" fill-rule="evenodd" xlink:href="#path-1"></use>
                            <path stroke="#F25D4B" stroke-width="1" d="M0.5,0.5 L0.5,35.0284053 L14,25.3855482 L27.5,35.0284053 L27.5,0.5 L0.5,0.5 Z"></path>
                        </g>
                        <g id="bling-copy" transform="translate(16.000000, 15.000000)" fill="#F25D4B">
                            <rect id="Rectangle-28" x="3" y="0" width="1" height="2" rx="0.5"></rect>
                            <rect id="Rectangle-28-Copy" x="3" y="5" width="1" height="2" rx="0.5"></rect>
                            <g id="Group-3" transform="translate(3.500000, 3.500000) rotate(-270.000000) translate(-3.500000, -3.500000) translate(3.000000, 0.000000)">
                                <rect id="Rectangle-28" x="0" y="0" width="1" height="2" rx="0.5"></rect>
                                <rect id="Rectangle-28-Copy" x="0" y="5" width="1" height="2" rx="0.5"></rect>
                            </g>
                        </g>
                        <g id="bling-copy-2" transform="translate(32.000000, 24.000000)" fill="#F25D4B">
                            <rect id="Rectangle-28" x="4" y="0" width="1" height="3" rx="0.5"></rect>
                            <rect id="Rectangle-28-Copy" x="4" y="6" width="1" height="3" rx="0.5"></rect>
                            <g id="Group-3" transform="translate(4.500000, 4.500000) rotate(-270.000000) translate(-4.500000, -4.500000) translate(4.000000, 0.000000)">
                                <rect id="Rectangle-28" x="0" y="0" width="1" height="3" rx="0.5"></rect>
                                <rect id="Rectangle-28-Copy" x="0" y="6" width="1" height="3" rx="0.5"></rect>
                            </g>
                        </g>
                    </g>
                </g>
            </g>
        </g>
    </g>
</svg>