<svg xmlns="http://www.w3.org/2000/svg" width="44" height="44" viewBox="0 0 44 44">
  <g fill="none" fill-rule="evenodd" transform="translate(-1256 -3355)">
    <g stroke="#F25D4B" stroke-linecap="round" stroke-linejoin="round" transform="translate(1261 3359)">
      <path d="M30.5980977 14.5862264C31.0128645 14.8889434 32.0077619 16.0568481 33.5827896 18.0899404M11.8295769 26.6011778C9.28464075 24.7229768 5.60903365 21.396607.519161286 17.640205"/>
      <polyline points="3.461 21 3.461 .507 30.48 .507 30.48 20.786"/>
      <polyline points=".496 17.177 .496 35.498 33.493 35.498 33.493 17.177"/>
      <path d="M33.6241777 18.17261C28.633424 21.8307402 24.8903588 24.5743378 22.3949819 26.4034029M.37615366 35.3920945L15.9938833 23.2803652C16.4968868 22.9065449 17.3182246 22.9065449 17.821228 23.2803652L33.6227474 35.4168977"/>
    </g>
    <path stroke="#F25D4B" stroke-linecap="round" stroke-linejoin="round" d="M1269.45089 3365.54711L1277.67139 3365.54711M1269.45089 3369.54711L1286.52661 3369.54711M1269.45089 3373.54711L1286.52661 3373.54711M1269.45089 3377.54711L1286.52661 3377.54711M1261.58355 3376.52254C1261.59476 3376.5143 1262.54144 3375.51779 1264.42359 3373.533 1262.51903 3375.53426 1261.57235 3376.53077 1261.58355 3376.52254z"/>
  </g>
</svg>
