<?xml version="1.0" encoding="utf-8"?>
<!-- Generator: Adobe Illustrator 16.0.4, SVG Export Plug-In . SVG Version: 6.00 Build 0)  -->
<!DOCTYPE svg PUBLIC "-//W3C//DTD SVG 1.1//EN" "http://www.w3.org/Graphics/SVG/1.1/DTD/svg11.dtd">
<svg version="1.1" id="Layer_1" xmlns="http://www.w3.org/2000/svg" xmlns:xlink="http://www.w3.org/1999/xlink" x="0px" y="0px"
	 width="44px" height="44px" viewBox="0 0 44 44" enable-background="new 0 0 44 44" xml:space="preserve">
<g transform="translate(-402 -3151)">
	<g transform="translate(405 3156)">
		<path fill="none" stroke="#F45C45" d="M35.463,17.998c0-0.199-0.004-0.396-0.01-0.593C35.141,8.014,27.43,0.498,17.963,0.498
			c-9.665,0-17.5,7.835-17.5,17.5c0,9.664,7.835,17.5,17.5,17.5c3.886,0,7.477-1.267,10.38-3.41"/>
		<path fill="none" stroke="#F45C45" d="M32.391,37.91c0.007,0,0.023,0,0.055,0c0.085,0,0.178-0.057,0.233-0.148l7.366-12.008
			c0.039-0.079,0.037-0.16,0.002-0.213c-0.067-0.105-0.113-0.132-0.215-0.132h-4.438l0.159-0.623l1.267-4.976
			c0.019-0.096-0.001-0.205-0.03-0.247c-0.014-0.02-0.109-0.063-0.184-0.063h-4.842c-0.125,0-0.227,0.085-0.26,0.217l-2,9.518
			c-0.013,0.064,0.005,0.121,0.068,0.187c0.068,0.079,0.116,0.103,0.191,0.103h3.943l-0.111,0.592l-1.423,7.545
			C32.173,37.742,32.264,37.863,32.391,37.91z M32.398,37.912C32.398,37.912,32.398,37.912,32.398,37.912
			S32.398,37.912,32.398,37.912L32.398,37.912z"/>
	</g>
	<polyline fill="none" stroke="#F45C45" points="422.5,3164 422.5,3179 431.5,3172.904 	"/>
	<path fill="none" stroke="#F45C45" d="M418.666,3152.524h7.832"/>
</g>
<line fill="none" stroke="#F45C45" x1="20.51" y1="1.802" x2="20.51" y2="5.57"/>
</svg>
