<svg xmlns="http://www.w3.org/2000/svg" xmlns:xlink="http://www.w3.org/1999/xlink" width="44" height="44" viewBox="0 0 44 44">
  <defs>
    <path id="02-a" d="M0.984056815,4.56729015 L11.1824637,4.53233276 C11.4576595,4.53138946 11.6815145,4.75371508 11.6824578,5.02891092 C11.6824598,5.02948024 11.6824607,5.03004958 11.6824607,5.03061891 L11.6824607,5.03061891 C11.6824607,5.30703808 11.4588812,5.53138528 11.1824637,5.53233276 L0.984056815,5.56729015 C0.708860976,5.56823345 0.485005977,5.34590784 0.48406268,5.070712 C0.484060728,5.07014267 0.484059752,5.06957334 0.484059752,5.06900401 L0.484059752,5.06900401 C0.484059752,4.79258483 0.707639263,4.56823764 0.984056815,4.56729015 Z"/>
  </defs>
  <g fill="none" fill-rule="evenodd" transform="translate(-688 -3151)">
    <g transform="translate(690 3150)">
      <path stroke="#F45C45" d="M27.1497399,9.64556878 C24.5830791,8.23673425 21.6356476,7.43550074 18.5010781,7.43550074 C8.55995258,7.43550074 0.501078074,15.4943752 0.501078074,25.4355007 C0.501078074,35.3766262 8.55995258,43.4355007 18.5010781,43.4355007 C28.4422036,43.4355007 36.5010781,35.3766262 36.5010781,25.4355007 C36.5010781,22.00101 35.5391824,18.7911821 33.8700926,16.0607184"/>
      <circle cx="18.419" cy="25.452" r="11" stroke="#F45C45"/>
      <circle cx="18.426" cy="25.571" r="4" stroke="#F45C45"/>
      <g transform="rotate(-45 33.579 -5.674)">
        <use fill="#D8D8D8" xlink:href="#02-a"/>
        <path stroke="#F45C45" d="M11.1824556,5.03075834 C11.1823872,5.03163643 11.1816505,5.03233261 11.1807498,5.0323357 L0.98234296,5.06729309 C0.983273531,5.0672899 0.984033129,5.06803023 0.984059068,5.06895524 C0.984133316,5.06798649 0.984870028,5.0672903 0.98577067,5.06728722 L11.1841775,5.03232982 C11.183247,5.03233301 11.1824874,5.03159268 11.1824614,5.03066767 Z M0.984059068,5.06895524 C0.984059468,5.0689695 0.984059693,5.0689838 0.984059742,5.06899814 C0.984059743,5.06895321 0.984061492,5.06890866 0.984064925,5.06886457 Z"/>
        <polygon stroke="#F45C45" points="15.779 .741 28.082 .886 24.082 4.967 28.082 8.886 15.712 9.234 11.491 5.029"/>
      </g>
    </g>
  </g>
</svg>
