<svg xmlns="http://www.w3.org/2000/svg" width="44" height="44" viewBox="0 0 44 44">
  <g fill="none" fill-rule="evenodd" transform="translate(6 5)">
    <path stroke="#F45C45" d="M0.999998395,0.5 C0.72385602,0.5 0.499998395,0.723857625 0.499998395,1.00000002 L0.499997889,15.0000011 C0.499998472,15.2761434 0.72385657,15.5000006 0.99999891,15.5 L31.7989933,15.4999329 C31.9199428,15.4999326 32.0367924,15.4560906 32.1278909,15.3765304 C32.33588,15.1948847 32.3572355,14.8790233 32.1755898,14.6710342 L26.3356197,7.98411635 L32.1694349,1.32966051 C32.2493816,1.2384678 32.2934592,1.12132662 32.2934594,1.00005183 C32.2934599,0.723909457 32.0696026,0.500051472 31.7934602,0.500051029 L0.999999197,0.500001605 Z"/>
    <text fill="#F45C45" font-family="SFUIDisplay-Semibold, SF UI Display" font-size="9" font-weight="500">
      <tspan x="4.2" y="10.9">A</tspan>
    </text>
    <path stroke="#F45C45" d="M0.999998395,19.5 C0.72385602,19.5 0.499998395,19.7238576 0.499998395,20 L0.499997889,34.0000011 C0.499998472,34.2761434 0.72385657,34.5000006 0.99999891,34.5 L31.7989933,34.4999329 C31.9199428,34.4999326 32.0367924,34.4560906 32.1278909,34.3765304 C32.33588,34.1948847 32.3572355,33.8790233 32.1755898,33.6710342 L26.3356197,26.9841163 L32.1694349,20.3296605 C32.2493816,20.2384678 32.2934592,20.1213266 32.2934594,20.0000518 C32.2934599,19.7239095 32.0696026,19.5000515 31.7934602,19.500051 L0.999999197,19.5000016 Z" transform="matrix(-1 0 0 1 32.799 0)"/>
    <text fill="#F45C45" font-family="SFUIDisplay-Semibold, SF UI Display" font-size="9" font-weight="500">
      <tspan x="22" y="30.1">B</tspan>
    </text>
  </g>
</svg>
