<?xml version="1.0" encoding="UTF-8"?>
<svg width="131px" height="45px" viewBox="0 0 131 45" version="1.1" xmlns="http://www.w3.org/2000/svg" xmlns:xlink="http://www.w3.org/1999/xlink">
    <!-- Generator: Sketch 48.1 (47250) - http://www.bohemiancoding.com/sketch -->
    <title>app store badge</title>
    <desc>Created with Sketch.</desc>
    <defs></defs>
    <g id="integrate-email-success" stroke="none" stroke-width="1" fill="none" fill-rule="evenodd" transform="translate(-895.000000, -4980.000000)">
        <g id="outro" transform="translate(678.000000, 4671.000000)" fill-rule="nonzero">
            <g id="hero">
                <g id="app-store-badge" transform="translate(217.000000, 309.000000)">
                    <path d="M131,40.4891646 C131,42.9813128 129.313575,45 127.227682,45 L3.77723784,45 C1.69232849,45 0,42.9813128 0,40.4891646 L0,4.51672425 C0,2.02575377 1.69232849,0 3.77723784,0 L127.226698,0 C129.313575,0 130.999016,2.02575377 130.999016,4.51672425 L131,40.4891646 Z" id="Shape" fill="#3F4047"></path>
                    <g id="Group" transform="translate(12.000000, 9.000000)" fill="#FFFFFF">
                        <path d="M17.5398117,13.2761329 C17.5104709,10.1126837 20.2098225,8.57365534 20.3332561,8.50200415 C18.8045004,6.33970857 16.4349796,6.04427009 15.6023086,6.02071353 C13.6121944,5.81753823 11.6817735,7.17596632 10.667999,7.17596632 C9.63398955,7.17596632 8.0728578,6.040344 6.39031593,6.07371579 C4.22516884,6.10610605 2.19964339,7.32221328 1.08874082,9.21066389 C-1.20388689,13.0611793 0.505972257,18.7196605 2.70248362,21.8320705 C3.80124518,23.356376 5.08515717,25.0583373 6.76567554,24.9984643 C8.40977087,24.9327023 9.02390371,23.9816063 11.0079474,23.9816063 C12.9737795,23.9816063 13.5504776,24.9984643 15.2643837,24.9601849 C17.0288774,24.9327023 18.13978,23.4290088 19.200095,21.8909619 C20.4698425,20.1438507 20.979765,18.4232405 21,18.3349034 C20.9585182,18.3211621 17.5731994,17.067757 17.5398117,13.2761329 Z" id="Shape"></path>
                        <path d="M14.7064669,3.47043009 C15.5541372,2.54277539 16.1341222,1.28072365 15.973123,0 C14.7462318,0.0475285119 13.2118903,0.742632998 12.3283346,1.64991834 C11.5466157,2.44941581 10.848306,3.75984478 11.0287027,4.9921912 C12.4068944,5.08215588 13.8219413,4.3836565 14.7064669,3.47043009 Z" id="Shape"></path>
                    </g>
                    <g id="Group" transform="translate(44.000000, 21.000000)" fill="#FFFFFF">
                        <path d="M10.4948765,12.0035556 L8.44817284,12.0035556 L7.32703704,8.52888889 L3.43009877,8.52888889 L2.3621358,12.0035556 L0.369506173,12.0035556 L4.23039506,0.174222222 L6.61506173,0.174222222 L10.4948765,12.0035556 Z M6.98907407,7.07111111 L5.97518519,3.98222222 C5.86793827,3.66666667 5.66696296,2.92355556 5.37045679,1.75377778 L5.33440741,1.75377778 C5.21634568,2.25688889 5.02618519,3 4.76482716,3.98222222 L3.76896296,7.07111111 L6.98907407,7.07111111 Z" id="Shape"></path>
                        <path d="M20.4237778,7.63377778 C20.4237778,9.08444444 20.0263333,10.2311111 19.2314444,11.0728889 C18.5194691,11.8222222 17.635358,12.1964444 16.5800123,12.1964444 C15.4408519,12.1964444 14.6225309,11.7928889 14.1241481,10.9857778 L14.0880988,10.9857778 L14.0880988,15.4791111 L12.1666667,15.4791111 L12.1666667,6.28177778 C12.1666667,5.36977778 12.1423333,4.43377778 12.0954691,3.47377778 L13.785284,3.47377778 L13.8925309,4.82577778 L13.9285802,4.82577778 C14.569358,3.80711111 15.5417901,3.29866667 16.8467778,3.29866667 C17.8669753,3.29866667 18.718642,3.696 19.3999753,4.49155556 C20.0831111,5.288 20.4237778,6.33511111 20.4237778,7.63377778 Z M18.4662963,7.70311111 C18.4662963,6.87288889 18.277037,6.18844444 17.896716,5.64977778 C17.4812469,5.088 16.9233827,4.80711111 16.2240247,4.80711111 C15.7499753,4.80711111 15.3191852,4.96355556 14.934358,5.272 C14.5486296,5.58311111 14.296284,5.98933333 14.1782222,6.49244444 C14.1187407,6.72711111 14.089,6.91911111 14.089,7.07022222 L14.089,8.49244444 C14.089,9.11288889 14.2818642,9.63644444 14.6675926,10.064 C15.053321,10.4915556 15.5544074,10.7048889 16.1708519,10.7048889 C16.8945432,10.7048889 17.4578148,10.4293333 17.8606667,9.88 C18.2644198,9.32977778 18.4662963,8.60444444 18.4662963,7.70311111 Z" id="Shape"></path>
                        <path d="M30.3707037,7.63377778 C30.3707037,9.08444444 29.9732593,10.2311111 29.1774691,11.0728889 C28.4663951,11.8222222 27.582284,12.1964444 26.5269383,12.1964444 C25.3877778,12.1964444 24.5694568,11.7928889 24.0719753,10.9857778 L24.0359259,10.9857778 L24.0359259,15.4791111 L22.1144938,15.4791111 L22.1144938,6.28177778 C22.1144938,5.36977778 22.0901605,4.43377778 22.0432963,3.47377778 L23.7331111,3.47377778 L23.840358,4.82577778 L23.8764074,4.82577778 C24.516284,3.80711111 25.488716,3.29866667 26.7946049,3.29866667 C27.8139012,3.29866667 28.6655679,3.696 29.3487037,4.49155556 C30.0291358,5.288 30.3707037,6.33511111 30.3707037,7.63377778 Z M28.4132222,7.70311111 C28.4132222,6.87288889 28.2230617,6.18844444 27.8427407,5.64977778 C27.4272716,5.088 26.8712099,4.80711111 26.1709506,4.80711111 C25.696,4.80711111 25.2661111,4.96355556 24.8803827,5.272 C24.4946543,5.58311111 24.2432099,5.98933333 24.1251481,6.49244444 C24.0665679,6.72711111 24.0359259,6.91911111 24.0359259,7.07022222 L24.0359259,8.49244444 C24.0359259,9.11288889 24.2287901,9.63644444 24.612716,10.064 C24.9984444,10.4906667 25.4995309,10.7048889 26.1177778,10.7048889 C26.8414691,10.7048889 27.4047407,10.4293333 27.8075926,9.88 C28.2113457,9.32977778 28.4132222,8.60444444 28.4132222,7.70311111 Z" id="Shape"></path>
                        <path d="M41.4919383,8.68622222 C41.4919383,9.69244444 41.1377531,10.5111111 40.426679,11.1431111 C39.6453086,11.8337778 38.5575185,12.1786667 37.1597037,12.1786667 C35.8691358,12.1786667 34.8345185,11.9333333 34.0513457,11.4417778 L34.4965556,9.86222222 C35.3401111,10.3653333 36.265679,10.6177778 37.2741605,10.6177778 C37.9978519,10.6177778 38.5611235,10.456 38.9657778,10.1342222 C39.3686296,9.81244444 39.5696049,9.38044444 39.5696049,8.84177778 C39.5696049,8.36177778 39.4037778,7.95733333 39.0712222,7.62933333 C38.7404691,7.30133333 38.1880123,6.99644444 37.4165556,6.71466667 C35.316679,5.94222222 34.267642,4.81066667 34.267642,3.32266667 C34.267642,2.35022222 34.6353457,1.55288889 35.3716543,0.932444444 C36.1052593,0.311111111 37.084,0.000888888889 38.3078765,0.000888888889 C39.3992716,0.000888888889 40.3059136,0.188444444 41.0296049,0.562666667 L40.5492469,2.10755556 C39.873321,1.74488889 39.1090741,1.56355556 38.2538025,1.56355556 C37.5778765,1.56355556 37.0497531,1.728 36.6712346,2.05511111 C36.3512963,2.34755556 36.1908765,2.704 36.1908765,3.12622222 C36.1908765,3.59377778 36.3738272,3.98044444 36.7415309,4.28444444 C37.0614691,4.56533333 37.6427654,4.86933333 38.486321,5.19733333 C39.5182346,5.60711111 40.2761728,6.08622222 40.7637407,6.63555556 C41.2495062,7.18311111 41.4919383,7.86844444 41.4919383,8.68622222 Z" id="Shape"></path>
                        <path d="M47.8447407,4.896 L45.7268395,4.896 L45.7268395,9.03733333 C45.7268395,10.0906667 46.0999506,10.6168889 46.8479753,10.6168889 C47.1913457,10.6168889 47.4761358,10.5875556 47.7014444,10.5288889 L47.7546173,11.968 C47.3760988,12.1075556 46.877716,12.1777778 46.2603704,12.1777778 C45.5015309,12.1777778 44.9085185,11.9493333 44.4804321,11.4933333 C44.0541481,11.0364444 43.8396543,10.2702222 43.8396543,9.19377778 L43.8396543,4.89422222 L42.5779259,4.89422222 L42.5779259,3.472 L43.8396543,3.472 L43.8396543,1.91022222 L45.7268395,1.34844444 L45.7268395,3.472 L47.8447407,3.472 L47.8447407,4.896 Z" id="Shape"></path>
                        <path d="M57.4005309,7.66844444 C57.4005309,8.97955556 57.0202099,10.056 56.2613704,10.8977778 C55.4655802,11.7644444 54.4093333,12.1964444 53.0926296,12.1964444 C51.8236914,12.1964444 50.8134074,11.7813333 50.0599753,10.9511111 C49.3065432,10.1208889 48.9298272,9.07288889 48.9298272,7.80977778 C48.9298272,6.488 49.317358,5.40533333 50.0951235,4.56355556 C50.8710864,3.72088889 51.918321,3.29955556 53.2350247,3.29955556 C54.503963,3.29955556 55.5250617,3.71466667 56.2956173,4.54577778 C57.0328272,5.352 57.4005309,6.39288889 57.4005309,7.66844444 Z M55.407,7.72977778 C55.407,6.94311111 55.2366667,6.26844444 54.8914938,5.70577778 C54.488642,5.02488889 53.9127531,4.68533333 53.1665309,4.68533333 C52.3941728,4.68533333 51.8074691,5.02577778 51.4046173,5.70577778 C51.0594444,6.26933333 50.8891111,6.95466667 50.8891111,7.76533333 C50.8891111,8.552 51.0594444,9.22666667 51.4046173,9.78844444 C51.8200864,10.4693333 52.4004815,10.8088889 53.1494074,10.8088889 C53.8830123,10.8088889 54.4589012,10.4622222 54.8743704,9.77066667 C55.2285556,9.19733333 55.407,8.51555556 55.407,7.72977778 Z" id="Shape"></path>
                        <path d="M63.6460864,5.14044444 C63.4559259,5.10577778 63.2531481,5.088 63.0404568,5.088 C62.3645309,5.088 61.8418148,5.33955556 61.4741111,5.84355556 C61.1541728,6.288 60.9937531,6.84977778 60.9937531,7.528 L60.9937531,12.0035556 L59.0732222,12.0035556 L59.0912469,6.16 C59.0912469,5.17688889 59.0669136,4.28177778 59.0191481,3.47466667 L60.6927407,3.47466667 L60.763037,5.10666667 L60.8162099,5.10666667 C61.0189877,4.54577778 61.3389259,4.09422222 61.7769259,3.75555556 C62.2050123,3.45066667 62.6673457,3.29866667 63.1657284,3.29866667 C63.3432716,3.29866667 63.5036914,3.31111111 63.6460864,3.33333333 L63.6460864,5.14044444 Z" id="Shape"></path>
                        <path d="M72.239358,7.33511111 C72.239358,7.67466667 72.2168272,7.96088889 72.1690617,8.19466667 L66.4047654,8.19466667 C66.4272963,9.03733333 66.7057778,9.68177778 67.2411111,10.1262222 C67.7268765,10.5235556 68.355037,10.7226667 69.1264938,10.7226667 C69.979963,10.7226667 70.7586296,10.5884444 71.4588889,10.3191111 L71.7599012,11.6346667 C70.9415802,11.9866667 69.9754568,12.1617778 68.8606296,12.1617778 C67.5195926,12.1617778 66.4669506,11.7724444 65.7009012,10.9946667 C64.9366543,10.2168889 64.5536296,9.17244444 64.5536296,7.86222222 C64.5536296,6.576 64.9096173,5.50488889 65.6224938,4.65066667 C66.368716,3.73866667 67.3771975,3.28266667 68.6461358,3.28266667 C69.8925432,3.28266667 70.8361358,3.73866667 71.4769136,4.65066667 C71.9843086,5.37511111 72.239358,6.27111111 72.239358,7.33511111 Z M70.4071481,6.84355556 C70.4197654,6.28177778 70.2944938,5.79644444 70.034037,5.38666667 C69.7014815,4.85955556 69.1904815,4.59644444 68.5028395,4.59644444 C67.874679,4.59644444 67.363679,4.85333333 66.9734444,5.36888889 C66.6535062,5.77866667 66.4633457,6.27022222 66.4047654,6.84266667 L70.4071481,6.84266667 L70.4071481,6.84355556 Z" id="Shape"></path>
                    </g>
                    <g id="Group" transform="translate(45.000000, 10.000000)" fill="#FFFFFF">
                        <path d="M5.43734177,3.507875 C5.43734177,4.53775 5.12008861,5.313 4.48648101,5.833625 C3.89960759,6.314 3.06558228,6.554625 1.9853038,6.554625 C1.44965823,6.554625 0.991303797,6.531875 0.607544304,6.486375 L0.607544304,0.85925 C1.10813924,0.7805 1.64737975,0.74025 2.22975949,0.74025 C3.25881013,0.74025 4.03441772,0.958125 4.55748101,1.393875 C5.1434557,1.8865 5.43734177,2.590875 5.43734177,3.507875 Z M4.44424051,3.53325 C4.44424051,2.865625 4.2626962,2.35375 3.89960759,1.99675 C3.53651899,1.640625 3.00626582,1.462125 2.30794937,1.462125 C2.01136709,1.462125 1.75882278,1.481375 1.54941772,1.521625 L1.54941772,5.7995 C1.66535443,5.817 1.8774557,5.824875 2.18572152,5.824875 C2.90650633,5.824875 3.46282278,5.62975 3.85467089,5.2395 C4.24651899,4.84925 4.44424051,4.2805 4.44424051,3.53325 Z" id="Shape"></path>
                        <path d="M10.7030253,4.407375 C10.7030253,5.04175 10.5169873,5.5615 10.1449114,5.96925 C9.75486076,6.388375 9.23808861,6.5975 8.59279747,6.5975 C7.97087342,6.5975 7.47567089,6.397125 7.10629114,5.994625 C6.73781013,5.593 6.55356962,5.086375 6.55356962,4.475625 C6.55356962,3.836875 6.74320253,3.31275 7.12426582,2.905875 C7.50532911,2.499 8.01760759,2.295125 8.66289873,2.295125 C9.28482278,2.295125 9.78451899,2.4955 10.1628861,2.897125 C10.5223797,3.287375 10.7030253,3.791375 10.7030253,4.407375 Z M9.72610127,4.437125 C9.72610127,4.0565 9.64162025,3.730125 9.47355696,3.458 C9.27583544,3.129 8.99453165,2.9645 8.62874684,2.9645 C8.25037975,2.9645 7.96278481,3.129 7.76506329,3.458 C7.59610127,3.730125 7.51251899,4.06175 7.51251899,4.45375 C7.51251899,4.834375 7.597,5.16075 7.76506329,5.432875 C7.96907595,5.761875 8.25307595,5.926375 8.61975949,5.926375 C8.97925316,5.926375 9.2614557,5.75925 9.46456962,5.424125 C9.63892405,5.14675 9.72610127,4.81775 9.72610127,4.437125 Z" id="Shape"></path>
                        <path d="M17.763481,2.379125 L16.4378481,6.503875 L15.5750633,6.503875 L15.0259367,4.71275 C14.8866329,4.265625 14.7733924,3.821125 14.6853165,3.380125 L14.6682405,3.380125 C14.5864557,3.833375 14.4732152,4.277 14.3276203,4.71275 L13.7443418,6.503875 L12.8716709,6.503875 L11.6251266,2.379125 L12.5930633,2.379125 L13.0720886,4.34 C13.1880253,4.80375 13.2832911,5.245625 13.3596835,5.663875 L13.3767595,5.663875 C13.4468608,5.319125 13.5627975,4.879875 13.7263671,4.34875 L14.3276203,2.38 L15.0951392,2.38 L15.6712278,4.30675 C15.8105316,4.776625 15.9237722,5.229 16.0109494,5.66475 L16.0370127,5.66475 C16.1008228,5.240375 16.1969873,4.788 16.3246076,4.30675 L16.8386835,2.38 L17.763481,2.38 L17.763481,2.379125 Z" id="Shape"></path>
                        <path d="M22.6463038,6.503875 L21.7044304,6.503875 L21.7044304,4.141375 C21.7044304,3.413375 21.4204304,3.049375 20.8506329,3.049375 C20.5711266,3.049375 20.3455443,3.149125 20.1702911,3.3495 C19.9968354,3.549875 19.9087595,3.786125 19.9087595,4.0565 L19.9087595,6.503 L18.9668861,6.503 L18.9668861,3.55775 C18.9668861,3.1955 18.9552025,2.802625 18.9327342,2.377375 L19.7604684,2.377375 L19.8045063,3.02225 L19.8305696,3.02225 C19.9402152,2.821875 20.1037848,2.6565 20.3185823,2.524375 C20.5738228,2.370375 20.8596203,2.2925 21.1723797,2.2925 C21.5678228,2.2925 21.8967595,2.41675 22.1582911,2.666125 C22.4836329,2.9715 22.6463038,3.427375 22.6463038,4.032875 L22.6463038,6.503875 Z" id="Shape"></path>
                        <polygon id="Shape" points="25.2436456 6.503875 24.3026709 6.503875 24.3026709 0.4865 25.2436456 0.4865"></polygon>
                        <path d="M30.7888354,4.407375 C30.7888354,5.04175 30.6027975,5.5615 30.2307215,5.96925 C29.8406709,6.388375 29.323,6.5975 28.6786076,6.5975 C28.0557848,6.5975 27.5605823,6.397125 27.1921013,5.994625 C26.8236203,5.593 26.6393797,5.086375 26.6393797,4.475625 C26.6393797,3.836875 26.8290127,3.31275 27.2100759,2.905875 C27.5911392,2.499 28.1034177,2.295125 28.7478101,2.295125 C29.3706329,2.295125 29.8694304,2.4955 30.2486962,2.897125 C30.6081899,3.287375 30.7888354,3.791375 30.7888354,4.407375 Z M29.8110127,4.437125 C29.8110127,4.0565 29.7265316,3.730125 29.5584684,3.458 C29.3616456,3.129 29.079443,2.9645 28.714557,2.9645 C28.3352911,2.9645 28.0476962,3.129 27.8508734,3.458 C27.6819114,3.730125 27.5983291,4.06175 27.5983291,4.45375 C27.5983291,4.834375 27.6828101,5.16075 27.8508734,5.432875 C28.0548861,5.761875 28.3388861,5.926375 28.7055696,5.926375 C29.0650633,5.926375 29.3463671,5.75925 29.549481,5.424125 C29.7247342,5.14675 29.8110127,4.81775 29.8110127,4.437125 Z" id="Shape"></path>
                        <path d="M35.3472152,6.503875 L34.5015063,6.503875 L34.4314051,6.02875 L34.4053418,6.02875 C34.1159494,6.407625 33.7034304,6.5975 33.1677848,6.5975 C32.7678481,6.5975 32.4443038,6.472375 32.2007468,6.223875 C31.9796582,5.998125 31.8691139,5.71725 31.8691139,5.383875 C31.8691139,4.879875 32.0848101,4.49575 32.5188987,4.22975 C32.9520886,3.96375 33.5614304,3.833375 34.3460253,3.8395 L34.3460253,3.7625 C34.3460253,3.219125 34.053038,2.947875 33.4661646,2.947875 C33.0482532,2.947875 32.6797722,3.05025 32.3616203,3.25325 L32.1701899,2.65125 C32.5638354,2.414125 33.0500506,2.295125 33.623443,2.295125 C34.7306835,2.295125 35.2861013,2.863875 35.2861013,4.001375 L35.2861013,5.520375 C35.2861013,5.9325 35.3067722,6.260625 35.3472152,6.503875 Z M34.3693924,5.086375 L34.3693924,4.45025 C33.3304557,4.43275 32.8109873,4.710125 32.8109873,5.2815 C32.8109873,5.49675 32.8703038,5.65775 32.9916329,5.765375 C33.112962,5.873 33.2675443,5.926375 33.4517848,5.926375 C33.6584937,5.926375 33.8517215,5.8625 34.0278734,5.735625 C34.2049241,5.607875 34.3136709,5.446 34.3541139,5.247375 C34.364,5.20275 34.3693924,5.1485 34.3693924,5.086375 Z" id="Shape"></path>
                        <path d="M40.6991772,6.503875 L39.8633544,6.503875 L39.8193165,5.8415 L39.7932532,5.8415 C39.5263291,6.3455 39.0715696,6.5975 38.4325696,6.5975 C37.9220886,6.5975 37.4969873,6.402375 37.159962,6.012125 C36.8229367,5.621875 36.6548734,5.11525 36.6548734,4.493125 C36.6548734,3.8255 36.8373165,3.28475 37.204,2.87175 C37.559,2.48675 37.9939873,2.29425 38.5116582,2.29425 C39.080557,2.29425 39.4786962,2.480625 39.7051772,2.85425 L39.7231519,2.85425 L39.7231519,0.4865 L40.6659241,0.4865 L40.6659241,5.392625 C40.6659241,5.79425 40.6767089,6.164375 40.6991772,6.503875 Z M39.7231519,4.764375 L39.7231519,4.076625 C39.7231519,3.957625 39.7141646,3.861375 39.6970886,3.787875 C39.6440633,3.567375 39.5299241,3.381875 39.3564684,3.23225 C39.1812152,3.082625 38.9700127,3.007375 38.7264557,3.007375 C38.3750506,3.007375 38.100038,3.143 37.8978228,3.415125 C37.6974051,3.68725 37.5958481,4.034625 37.5958481,4.459 C37.5958481,4.86675 37.6920127,5.1975 37.8852405,5.452125 C38.0892532,5.723375 38.3642658,5.859 38.708481,5.859 C39.0176456,5.859 39.2647975,5.746125 39.4526329,5.5195 C39.6341772,5.310375 39.7231519,5.058375 39.7231519,4.764375 Z" id="Shape"></path>
                        <path d="M48.7545316,4.407375 C48.7545316,5.04175 48.5684937,5.5615 48.1964177,5.96925 C47.8063671,6.388375 47.2904937,6.5975 46.6443038,6.5975 C46.0232785,6.5975 45.5280759,6.397125 45.1577975,5.994625 C44.7893165,5.593 44.6050759,5.086375 44.6050759,4.475625 C44.6050759,3.836875 44.7947089,3.31275 45.1757722,2.905875 C45.5568354,2.499 46.0691139,2.295125 46.7153038,2.295125 C47.3363291,2.295125 47.8369241,2.4955 48.2143924,2.897125 C48.5738861,3.287375 48.7545316,3.791375 48.7545316,4.407375 Z M47.7785063,4.437125 C47.7785063,4.0565 47.6940253,3.730125 47.525962,3.458 C47.3273418,3.129 47.0469367,2.9645 46.6802532,2.9645 C46.3027848,2.9645 46.0151899,3.129 45.8165696,3.458 C45.6476076,3.730125 45.5640253,4.06175 45.5640253,4.45375 C45.5640253,4.834375 45.6485063,5.16075 45.8165696,5.432875 C46.0205823,5.761875 46.3045823,5.926375 46.6712658,5.926375 C47.0307595,5.926375 47.3138608,5.75925 47.5169747,5.424125 C47.6904304,5.14675 47.7785063,4.81775 47.7785063,4.437125 Z" id="Shape"></path>
                        <path d="M53.8188987,6.503875 L52.8779241,6.503875 L52.8779241,4.141375 C52.8779241,3.413375 52.5939241,3.049375 52.0232278,3.049375 C51.7437215,3.049375 51.5181392,3.149125 51.3437848,3.3495 C51.1694304,3.549875 51.0822532,3.786125 51.0822532,4.0565 L51.0822532,6.503 L50.139481,6.503 L50.139481,3.55775 C50.139481,3.1955 50.1286962,2.802625 50.1062278,2.377375 L50.9330633,2.377375 L50.9771013,3.02225 L51.0031646,3.02225 C51.1137089,2.821875 51.2772785,2.6565 51.4911772,2.524375 C51.7473165,2.370375 52.0322152,2.2925 52.3458734,2.2925 C52.7404177,2.2925 53.0693544,2.41675 53.3308861,2.666125 C53.6571266,2.9715 53.8188987,3.427375 53.8188987,4.032875 L53.8188987,6.503875 Z" id="Shape"></path>
                        <path d="M60.1576709,3.066 L59.1205316,3.066 L59.1205316,5.06975 C59.1205316,5.579 59.3047722,5.833625 59.6696582,5.833625 C59.8386203,5.833625 59.9788228,5.819625 60.0893671,5.79075 L60.1136329,6.486375 C59.9275949,6.554625 59.6831392,6.58875 59.3820633,6.58875 C59.0099873,6.58875 58.7205949,6.4785 58.5111899,6.258 C58.3008861,6.0375 58.1966329,5.6665 58.1966329,5.145875 L58.1966329,3.066 L57.5774051,3.066 L57.5774051,2.379125 L58.1966329,2.379125 L58.1966329,1.623125 L59.1196329,1.351875 L59.1196329,2.37825 L60.1567722,2.37825 L60.1567722,3.066 L60.1576709,3.066 Z" id="Shape"></path>
                        <path d="M65.1438481,6.503875 L64.2010759,6.503875 L64.2010759,4.158875 C64.2010759,3.4195 63.9170759,3.049375 63.3481772,3.049375 C62.9113924,3.049375 62.6130127,3.26375 62.449443,3.6925 C62.4215823,3.782625 62.4054051,3.892875 62.4054051,4.022375 L62.4054051,6.503 L61.4644304,6.503 L61.4644304,0.4865 L62.4054051,0.4865 L62.4054051,2.972375 L62.4233797,2.972375 C62.719962,2.52 63.1450633,2.29425 63.6959873,2.29425 C64.086038,2.29425 64.4086835,2.4185 64.6648228,2.667875 C64.9838734,2.9785 65.1438481,3.4405 65.1438481,4.05125 L65.1438481,6.503875 Z" id="Shape"></path>
                        <path d="M70.2873038,4.246375 C70.2873038,4.410875 70.2747215,4.549125 70.2522532,4.662 L67.4275316,4.662 C67.4401139,5.06975 67.5749241,5.380375 67.8364557,5.595625 C68.075519,5.788125 68.3837848,5.884375 68.7612532,5.884375 C69.1791646,5.884375 69.5602278,5.819625 69.9035443,5.68925 L70.0509367,6.32625 C69.6492025,6.496 69.1764684,6.580875 68.6291392,6.580875 C67.9730633,6.580875 67.4562911,6.39275 67.0824177,6.0165 C66.7067468,5.64025 66.5207089,5.135375 66.5207089,4.501875 C66.5207089,3.87975 66.6941646,3.36175 67.0437722,2.94875 C67.4086582,2.50775 67.9020633,2.28725 68.5248861,2.28725 C69.1342278,2.28725 69.5970759,2.50775 69.9098354,2.94875 C70.1623797,3.29875 70.2873038,3.731875 70.2873038,4.246375 Z M69.3885696,4.00925 C69.3957595,3.737125 69.3337468,3.502625 69.2061266,3.304875 C69.042557,3.05025 68.7936076,2.9225 68.4565823,2.9225 C68.1492152,2.9225 67.8984684,3.04675 67.707038,3.296125 C67.5506582,3.49475 67.4580886,3.731875 67.4275316,4.00925 L69.3885696,4.00925 Z" id="Shape"></path>
                    </g>
                </g>
            </g>
        </g>
    </g>
</svg>