<?xml version="1.0" encoding="UTF-8"?>
<svg width="16px" height="17px" viewBox="0 0 16 17" version="1.1" xmlns="http://www.w3.org/2000/svg" xmlns:xlink="http://www.w3.org/1999/xlink">
    <!-- Generator: Sketch 48.1 (47250) - http://www.bohemiancoding.com/sketch -->
    <title>Group 2</title>
    <desc>Created with Sketch.</desc>
    <defs></defs>
    <g id="tetra-mobile-menu" stroke="none" stroke-width="1" fill="none" fill-rule="evenodd" transform="translate(-125.000000, -572.000000)">
        <g id="menu" transform="translate(0.000000, 70.000000)">
            <g id="fb" transform="translate(125.000000, 502.000000)">
                <g id="Group-2">
                    <rect id="Rectangle-26" fill="#D6DDE9" x="0" y="0" width="16" height="16" rx="3"></rect>
                    <path d="M10.0304422,3.69924378 C8.15422537,3.69924378 6.94173166,4.94322214 6.94173166,6.86860858 L6.94173166,8.32989797 L5.26259532,8.32989797 C5.11749801,8.32989797 5,8.44752996 5,8.59262727 L5,10.7098691 C5,10.8549664 5.11763199,10.9724644 5.26259532,10.9724644 L6.94173166,10.9724644 L6.94173166,16.3149395 C6.94173166,16.4600368 7.05922967,16.5775348 7.20432698,16.5775348 L9.39512226,16.5775348 C9.54021958,16.5775348 9.65771759,16.4599028 9.65771759,16.3149395 L9.65771759,10.9724644 L11.6210196,10.9724644 C11.7661169,10.9724644 11.8836149,10.8549664 11.8836149,10.7098691 L11.8844188,8.59262727 C11.8844188,8.52295913 11.8566855,8.45623848 11.8075158,8.40693487 C11.7583462,8.35763125 11.6913576,8.32989797 11.6216895,8.32989797 L9.65771759,8.32989797 L9.65771759,7.09114472 C9.65771759,6.49575001 9.79959945,6.19349744 10.5751935,6.19349744 L11.7002001,6.1930955 C11.8451634,6.1930955 11.9626614,6.07546352 11.9626614,5.93050018 L11.9626614,3.96451865 C11.9626614,3.81968929 11.8452974,3.70219128 11.7004681,3.70192332 L10.0304422,3.69924378 Z" id="Shape" fill="#FFFFFF"></path>
                </g>
            </g>
        </g>
    </g>
</svg>