<?xml version="1.0" encoding="UTF-8"?>
<svg width="26px" height="26px" viewBox="0 0 26 26" version="1.1" xmlns="http://www.w3.org/2000/svg" xmlns:xlink="http://www.w3.org/1999/xlink">
    <!-- Generator: Sketch 48.1 (47250) - http://www.bohemiancoding.com/sketch -->
    <title>Group 3</title>
    <desc>Created with Sketch.</desc>
    <defs></defs>
    <g id="tetra-homepage-mobile-integration-email-success" stroke="none" stroke-width="1" fill="none" fill-rule="evenodd" transform="translate(-25.000000, -291.000000)">
        <g id="features" transform="translate(0.000000, -1078.000000)">
            <g id="integration" transform="translate(0.000000, 1105.000000)">
                <g id="input" transform="translate(25.000000, 264.000000)">
                    <g id="Group-3">
                        <circle id="Oval-4" fill="#76D152" cx="13" cy="13" r="13"></circle>
                        <path d="M18.2639533,9.14381217 L10.9442317,16.1552001 L8.73355115,14.3644681 C8.46277297,14.1002811 8.06808546,14.0075241 7.70797687,14.123444 C7.34786828,14.2393639 7.08140733,14.5449464 7.01559241,14.9174837 C6.9497775,15.2900209 7.09540425,15.6684056 7.39399571,15.9006958 L10.3063481,18.3027584 C10.7043969,18.6499388 11.3015602,18.6361048 11.6831049,18.2708642 L19.6779115,10.61626 C19.9842614,10.3286275 20.0830281,9.88264007 19.9267623,9.49255837 C19.7704965,9.10247666 19.3911359,8.8480259 18.9709324,8.85144888 C18.7062815,8.85356228 18.4527979,8.95838758 18.2639533,9.14381217 Z" id="Shape" fill="#2F343F" fill-rule="nonzero"></path>
                    </g>
                </g>
            </g>
        </g>
    </g>
</svg>