<?xml version="1.0" encoding="UTF-8"?>
<svg width="31px" height="38px" viewBox="0 0 31 38" version="1.1" xmlns="http://www.w3.org/2000/svg" xmlns:xlink="http://www.w3.org/1999/xlink">
    <!-- Generator: Sketch 46.2 (44496) - http://www.bohemiancoding.com/sketch -->
    <title>icon-lock</title>
    <desc>Created with Sketch.</desc>
    <defs>
        <rect id="path-1" x="0" y="15" width="31" height="23" rx="3"></rect>
        <path d="M14,27.6631844 C12.8175263,27.1014525 12,25.896198 12,24.5 C12,22.5670034 13.5670034,21 15.5,21 C17.4329966,21 19,22.5670034 19,24.5 C19,25.896198 18.1824737,27.1014525 17,27.6631844 L17,30.5 C17,31.3284271 16.3284271,32 15.5,32 C14.6715729,32 14,31.3284271 14,30.5 L14,27.6631844 Z" id="path-2"></path>
    </defs>
    <g id="Page-1" stroke="none" stroke-width="1" fill="none" fill-rule="evenodd">
        <g id="number-success" transform="translate(-406.000000, -3716.000000)">
            <g id="dark-section" transform="translate(0.000000, 3049.000000)">
                <g id="faq" transform="translate(0.000000, 546.000000)">
                    <g id="faq-copy" transform="translate(406.000000, 100.000000)">
                        <g id="data-secure" transform="translate(0.000000, 20.000000)">
                            <g id="icon-lock" transform="translate(0.000000, 1.000000)">
                                <path d="M5.5,15.5 L5,15.5 L5.5,16 L5.5,15.5 Z M5.5,11.5 L5.5,11 L5,11 L5,11.5 L5.5,11.5 Z M25.5,11.5 L26,11.5 L26,11 L25.5,11 L25.5,11.5 Z M25.5,15.5 L25.5,16 L26,15.5 L25.5,15.5 Z M5.5,15.5 L5.5,11.5 L5.53568462,11.5 L5.51114656,10.9765853 C5.50372319,10.8182397 5.5,10.6593508 5.5,10.5 C5.5,4.9771525 9.9771525,0.5 15.5,0.5 C21.0228475,0.5 25.5,4.9771525 25.5,10.5 C25.5,10.6593508 25.4962768,10.8182397 25.4888534,10.9765853 L25.4643154,11.5 L25.5,11.5 L25.5,15.5 L24.1667776,15.5 L24.0203114,15.7377272 C22.2110749,18.6742728 19.0130807,20.5 15.5,20.5 C11.9869193,20.5 8.78892512,18.6742728 6.97968863,15.7377272 L6.83322241,15.5 L5.5,15.5 Z" id="Combined-Shape" stroke="#F25D4B"></path>
                                <path d="M22.5,15.5 L22.5,10.2656347 L22.4846773,10.0328391 C22.2434589,6.36804264 19.1921531,3.5 15.5,3.5 C11.8078469,3.5 8.75654112,6.36804264 8.5153227,10.0328391 L8.5,10.2656347 L8.5,15.5 L10.4009315,15.5 L10.5971164,15.5 L10.7409536,15.6334144 C12.0268296,16.8261133 13.7100449,17.5 15.5,17.5 C17.2899551,17.5 18.9731704,16.8261133 20.2590464,15.6334144 L20.4028836,15.5 L20.5990685,15.5 L22.5,15.5 Z" id="Combined-Shape-Copy" stroke="#F25D4B"></path>
                                <g id="Rectangle-13">
                                    <use fill="#343944" fill-rule="evenodd" xlink:href="#path-1"></use>
                                    <rect stroke="#F25D4B" stroke-width="1" x="0.5" y="15.5" width="30" height="22" rx="3"></rect>
                                </g>
                                <g id="Combined-Shape">
                                    <use fill="#353B47" fill-rule="evenodd" xlink:href="#path-2"></use>
                                    <path stroke="#F25D4B" stroke-width="1" d="M14.2145462,27.2115541 L14.5,27.3471584 L14.5,30.5 C14.5,31.0522847 14.9477153,31.5 15.5,31.5 C16.0522847,31.5 16.5,31.0522847 16.5,30.5 L16.5,27.3471584 L16.7854538,27.2115541 C17.824124,26.7181357 18.5,25.6702226 18.5,24.5 C18.5,22.8431458 17.1568542,21.5 15.5,21.5 C13.8431458,21.5 12.5,22.8431458 12.5,24.5 C12.5,25.6702226 13.175876,26.7181357 14.2145462,27.2115541 Z"></path>
                                </g>
                            </g>
                        </g>
                    </g>
                </g>
            </g>
        </g>
    </g>
</svg>