<?xml version="1.0" encoding="UTF-8"?>
<svg width="92px" height="24px" viewBox="0 0 92 24" version="1.1" xmlns="http://www.w3.org/2000/svg" xmlns:xlink="http://www.w3.org/1999/xlink">
    <!-- Generator: Sketch 48.1 (47250) - http://www.bohemiancoding.com/sketch -->
    <title>logo</title>
    <desc>Created with Sketch.</desc>
    <defs></defs>
    <g id="homepage" stroke="none" stroke-width="1" fill="none" fill-rule="evenodd" transform="translate(-405.000000, -48.000000)">
        <g id="header" transform="translate(405.000000, 42.000000)">
            <g id="logo" transform="translate(0.000000, 6.000000)">
                <g id="Group-3">
                    <polygon id="Clip-2" points="27.7058462 0.0286725664 0 0.0286725664 0 23.8938053 102.963317 23.8938053 102.963317 0.0286725664 27.7058462 0.0286725664 8.13898664e-06 0.0286513274 8.13898664e-06 23.8937841 27.7058462 23.8937841"></polygon>
                    <path d="M12.4759218,4.86783717 L12.4759218,14.2226336 L4.07189294,18.8999788 L12.4759218,4.86783717 Z M13.8529272,16.5217487 L22.3284502,21.2389168 L5.37740417,21.2389168 L13.8529272,16.5217487 Z M23.6339614,18.8999788 L15.2299325,14.2226336 L15.2299325,4.86783717 L23.6339614,18.8999788 Z M27.3166245,19.7392354 L16.3411207,1.41343009 C15.7882256,0.490279646 14.8205764,0.0286513274 13.8529272,0.0286513274 C12.885278,0.0286513274 11.9176288,0.490279646 11.3647336,1.41343009 L0.38922984,19.7392354 C-0.716670695,21.5857487 0.665732513,23.8937841 2.87742342,23.8937841 L24.8284309,23.8937841 C27.0401218,23.8937841 28.422525,21.5857487 27.3166245,19.7392354 Z" id="Fill-1" fill="#F05F4C" fill-rule="nonzero"></path>
                </g>
                <g id="Group" transform="translate(40.747253, 5.454545)" fill="#414141" fill-rule="nonzero">
                    <polygon id="Fill-4" points="4.15665478 2.87687947 0 2.87687947 0 0 11.3186813 0 11.3186813 2.87687947 7.16194455 2.87687947 7.16194455 14.1818182 4.15665478 14.1818182"></polygon>
                    <path d="M19.4525822,7.25704199 C19.2589352,5.79463883 18.398191,4.80548834 17.0210547,4.80548834 C15.6653442,4.80548834 14.7831742,5.77322591 14.5248877,7.25704199 L19.4525822,7.25704199 Z M11.3186813,8.22477955 L11.3186813,8.18177301 C11.3186813,4.89150143 13.6642339,2.18181818 17.0210547,2.18181818 C20.8728417,2.18181818 22.6373626,5.17104396 22.6373626,8.43990261 C22.6373626,8.69794187 22.6157559,8.99898767 22.59433,9.30003347 L14.5680107,9.30003347 C14.8907559,10.7839399 15.9236308,11.5580577 17.3868325,11.5580577 C18.4842564,11.5580577 19.2805419,11.2140053 20.1842283,10.3753777 L22.056331,12.03122 C20.9804234,13.3646035 19.4311563,14.1818182 17.3437998,14.1818182 C13.8793974,14.1818182 11.3186813,11.7516775 11.3186813,8.22477955 Z" id="Fill-6"></path>
                    <path d="M25.0400744,10.8338709 L25.0400744,5.55213058 L23.7692308,5.55213058 L23.7692308,2.84883916 L25.0400744,2.84883916 L25.0400744,0 L28.0584636,0 L28.0584636,2.84883916 L30.5604396,2.84883916 L30.5604396,5.55213058 L28.0584636,5.55213058 L28.0584636,10.3140575 C28.0584636,11.0418836 28.356298,11.3953566 29.0314728,11.3953566 C29.5874304,11.3953566 30.0839045,11.2498089 30.5207283,11.0002111 L30.5207283,13.5371623 C29.8852648,13.9323078 29.1506065,14.1818182 28.1378861,14.1818182 C26.2911458,14.1818182 25.0400744,13.4124071 25.0400744,10.8338709" id="Fill-8"></path>
                    <path d="M32.8241758,2.40658646 L36.0201011,2.40658646 L36.0201011,4.7792615 C36.6718296,3.15354484 37.723093,2.09905337 39.6153846,2.18691996 L39.6153846,5.67998643 L39.4471966,5.67998643 C37.3236465,5.67998643 36.0201011,7.02004435 36.0201011,9.83205238 L36.0201011,14.1818182 L32.8241758,14.1818182 L32.8241758,2.40658646 Z" id="Fill-10"></path>
                    <path d="M47.9586873,9.85572808 L47.9586873,9.26872937 C47.4214975,9.00797298 46.7189317,8.83398316 45.9543825,8.83398316 C44.6112343,8.83398316 43.7847017,9.39924456 43.7847017,10.4427268 L43.7847017,10.4861101 C43.7847017,11.3775225 44.4872675,11.8992179 45.4997504,11.8992179 C46.9667786,11.8992179 47.9586873,11.0514628 47.9586873,9.85572808 M40.7472527,10.6166253 L40.7472527,10.5730593 C40.7472527,8.02970268 42.5862684,6.85570525 45.2104944,6.85570525 C46.3262831,6.85570525 47.1321546,7.05134104 47.9172782,7.33401741 L47.9172782,7.13829028 C47.9172782,5.7687484 47.1114935,5.0078512 45.5410727,5.0078512 C44.3426394,5.0078512 43.4954456,5.24705295 42.4829627,5.63832453 L41.6977523,3.11661386 C42.9169335,2.55126113 44.1153668,2.18181818 45.9957047,2.18181818 C47.7107535,2.18181818 48.9505091,2.66003901 49.7357195,3.48614814 C50.5621653,4.35564055 50.9340659,5.63832453 50.9340659,7.20359355 L50.9340659,13.9644451 L47.8967038,13.9644451 L47.8967038,12.7035897 C47.1321546,13.5949108 46.0783493,14.1818182 44.5493377,14.1818182 C42.4623015,14.1818182 40.7472527,12.9210542 40.7472527,10.6166253" id="Fill-12"></path>
                </g>
            </g>
        </g>
    </g>
</svg>