<?xml version="1.0" encoding="UTF-8"?>
<svg width="81px" height="22px" viewBox="0 0 81 22" version="1.1" xmlns="http://www.w3.org/2000/svg" xmlns:xlink="http://www.w3.org/1999/xlink">
    <!-- Generator: Sketch 48.1 (47250) - http://www.bohemiancoding.com/sketch -->
    <title>logo</title>
    <desc>Created with Sketch.</desc>
    <defs></defs>
    <g id="tetra-pricing-v2" stroke="none" stroke-width="1" fill="none" fill-rule="evenodd" transform="translate(-405.000000, -1232.000000)">
        <g id="footer-" transform="translate(0.000000, 1130.000000)">
            <g id="logo" transform="translate(405.000000, 102.000000)">
                <g id="Group-3">
                    <polygon id="Clip-2" points="24.4779806 0.0262831858 0 0.0262831858 0 21.9026549 90.9675904 21.9026549 90.9675904 0.0262831858 24.4779806 0.0262831858 7.19075519e-06 0.0262637168 7.19075519e-06 21.9026354 24.4779806 21.9026354"></polygon>
                    <path d="M11.0224164,4.46218407 L11.0224164,13.0374142 L3.59749765,17.3249805 L11.0224164,4.46218407 Z M12.2389939,15.1449363 L19.7270773,19.4690071 L4.75091048,19.4690071 L12.2389939,15.1449363 Z M20.8804902,17.3249805 L13.4555714,13.0374142 L13.4555714,4.46218407 L20.8804902,17.3249805 Z M24.1341051,18.0942991 L14.4373009,1.29564425 C13.9488206,0.449423009 13.0939073,0.0262637168 12.2389939,0.0262637168 C11.3840805,0.0262637168 10.5291672,0.449423009 10.040687,1.29564425 L0.343882674,18.0942991 C-0.63317508,19.7869363 0.588171444,21.9026354 2.54218963,21.9026354 L21.9357982,21.9026354 C23.8898164,21.9026354 25.1111629,19.7869363 24.1341051,18.0942991 Z" id="Fill-1" fill="#F05F4C" fill-rule="nonzero"></path>
                </g>
                <g id="Group" transform="translate(36.000000, 5.000000)" fill="#FFFFFF" fill-rule="nonzero">
                    <polygon id="Fill-4" points="3.67238432 2.63713951 0 2.63713951 0 0 10 0 10 2.63713951 6.32754324 2.63713951 6.32754324 13 3.67238432 13"></polygon>
                    <path d="M17.186262,6.65228849 C17.0151757,5.31175226 16.2547125,4.40503098 15.0380192,4.40503098 C13.8402556,4.40503098 13.0608626,5.29212375 12.8326677,6.65228849 L17.186262,6.65228849 Z M10,7.53938125 L10,7.49995859 C10,4.48387631 12.0722843,2 15.0380192,2 C18.4410543,2 20,4.74012363 20,7.7365774 C20,7.97311338 19.9809105,8.24907203 19.9619808,8.52503068 L12.8707668,8.52503068 C13.1559105,9.88527824 14.0684505,10.5948862 15.3611821,10.5948862 C16.3307508,10.5948862 17.0342652,10.2795049 17.8326677,9.51076293 L19.4866613,11.0286183 C18.5361022,12.2508866 17.1673323,13 15.3231629,13 C12.2623802,13 10,10.772371 10,7.53938125 Z" id="Fill-6"></path>
                    <path d="M22.1227842,9.93104829 L22.1227842,5.08945303 L21,5.08945303 L21,2.61143589 L22.1227842,2.61143589 L22.1227842,0 L24.7895164,0 L24.7895164,2.61143589 L27,2.61143589 L27,5.08945303 L24.7895164,5.08945303 L24.7895164,9.45455273 C24.7895164,10.1217266 25.0526516,10.4457436 25.6491653,10.4457436 C26.1403511,10.4457436 26.5789836,10.3123248 26.9649153,10.0835269 L26.9649153,12.4090654 C26.4034864,12.7712821 25.7544194,13 24.8596858,13 C23.2280997,13 22.1227842,12.2947065 22.1227842,9.93104829" id="Fill-8"></path>
                    <path d="M29,2.20603759 L31.8235845,2.20603759 L31.8235845,4.38098971 C32.3993835,2.89074944 33.3281695,1.92413225 35,2.00467663 L35,5.20665423 L34.8514067,5.20665423 C32.9752605,5.20665423 31.8235845,6.43504065 31.8235845,9.01271468 L31.8235845,13 L29,13 L29,2.20603759 Z" id="Fill-10"></path>
                    <path d="M42.3712674,9.03441741 L42.3712674,8.49633525 C41.8966628,8.25730856 41.2759493,8.0978179 40.6004738,8.0978179 C39.413809,8.0978179 38.6835714,8.61597418 38.6835714,9.57249956 L38.6835714,9.61226758 C38.6835714,10.4293956 39.3042848,10.9076164 40.1988086,10.9076164 C41.4949209,10.9076164 42.3712674,10.1305076 42.3712674,9.03441741 M36,9.73190651 L36,9.69197105 C36,7.36056079 37.6247614,6.28439648 39.9432523,6.28439648 C40.9290462,6.28439648 41.6410298,6.46372929 42.3346826,6.72284929 L42.3346826,6.54343276 C42.3346826,5.28801936 41.6227758,4.59053027 40.2353167,4.59053027 C39.1765067,4.59053027 38.4280151,4.80979853 37.5334913,5.16846416 L36.8397617,2.85689604 C37.9169024,2.33865603 38.9757124,2 40.6369819,2 C42.1522191,2 43.2475372,2.43836909 43.9412667,3.19563579 C44.6714276,3.99267051 45,5.16846416 45,6.60329409 L45,12.8007413 L42.3165053,12.8007413 L42.3165053,11.6449573 C41.6410298,12.4620016 40.709998,13 39.3591236,13 C37.5152373,13 36,11.8442997 36,9.73190651" id="Fill-12"></path>
                </g>
            </g>
        </g>
    </g>
</svg>