<?xml version="1.0" encoding="UTF-8"?>
<svg width="54px" height="50px" viewBox="0 0 54 50" version="1.1" xmlns="http://www.w3.org/2000/svg" xmlns:xlink="http://www.w3.org/1999/xlink">
    <!-- Generator: Sketch 48.1 (47250) - http://www.bohemiancoding.com/sketch -->
    <title>“ copy</title>
    <desc>Created with Sketch.</desc>
    <defs></defs>
    <g id="integrate-email" stroke="none" stroke-width="1" fill="none" fill-rule="evenodd" transform="translate(-787.000000, -4232.000000)">
        <g id="testimonial" transform="translate(0.000000, 4114.000000)" fill="#DCE2EB">
            <g id="content" transform="translate(779.000000, 118.000000)">
                <path d="M29.4,49.05 L29.4,25.95 L19.5,25.95 C19.5,22.2499815 20.199993,19.1250127 21.6,16.575 C23.000007,14.0249872 25.599981,12.1000065 29.4,10.8 L29.4,0.9 C26.2999845,1.300002 23.4250132,2.22499275 20.775,3.675 C18.1249867,5.12500725 15.8500095,6.949989 13.95,9.15 C12.0499905,11.350011 10.5750052,13.8999855 9.525,16.8 C8.47499475,19.7000145 7.9999995,22.7999835 8.1,26.1 L8.1,49.05 L29.4,49.05 Z M61.35,49.05 L61.35,25.95 L51.45,25.95 C51.45,22.2499815 52.149993,19.1250127 53.55,16.575 C54.950007,14.0249872 57.549981,12.1000065 61.35,10.8 L61.35,0.9 C58.2499845,1.300002 55.3750132,2.22499275 52.725,3.675 C50.0749867,5.12500725 47.8000095,6.949989 45.9,9.15 C43.9999905,11.350011 42.5250052,13.8999855 41.475,16.8 C40.4249947,19.7000145 39.9499995,22.7999835 40.05,26.1 L40.05,49.05 L61.35,49.05 Z" id="“-copy"></path>
            </g>
        </g>
    </g>
</svg>