<?xml version="1.0" encoding="UTF-8"?>
<svg width="19px" height="16px" viewBox="0 0 19 16" version="1.1" xmlns="http://www.w3.org/2000/svg" xmlns:xlink="http://www.w3.org/1999/xlink">
    <!-- Generator: Sketch 48.1 (47250) - http://www.bohemiancoding.com/sketch -->
    <title>Fill 1</title>
    <desc>Created with Sketch.</desc>
    <defs></defs>
    <g id="tetra-mobile-menu" stroke="none" stroke-width="1" fill="none" fill-rule="evenodd" transform="translate(-25.000000, -572.000000)">
        <g id="menu" transform="translate(0.000000, 70.000000)" fill="#D6DDE9">
            <path d="M44,503.894049 C43.3009218,504.215305 42.5496507,504.432428 41.7611288,504.530079 C42.5659827,504.030156 43.1840265,503.238574 43.4750832,502.295403 C42.7219357,502.758239 41.8876843,503.094402 40.9997805,503.27559 C40.2886792,502.490562 39.2756099,502 38.1544716,502 C36.0016387,502 34.2562713,503.808496 34.2562713,506.03914 C34.2562713,506.355715 34.2908117,506.664008 34.3572515,506.959627 C31.1175427,506.791185 28.2452687,505.183105 26.3226819,502.739371 C25.9871466,503.335938 25.7949157,504.029796 25.7949157,504.770031 C25.7949157,506.171358 26.4831523,507.4077 27.529094,508.13202 C26.8900618,508.111064 26.289045,507.929372 25.7634332,507.62684 C25.7631552,507.643691 25.7631552,507.660614 25.7631552,507.67761 C25.7631552,509.634671 27.1068254,511.267236 28.8900691,511.638254 C28.562943,511.730576 28.2185815,511.779906 27.8630308,511.779906 C27.6118658,511.779906 27.3676506,511.754629 27.1296902,511.70746 C27.6256959,513.312227 29.0652731,514.480012 30.7710267,514.512634 C29.4369472,515.595946 27.7561432,516.241698 25.9298804,516.241698 C25.6152639,516.241698 25.3049563,516.222614 25,516.185311 C26.7250741,517.331347 28.7740773,518 30.9754197,518 C38.1453674,518 42.0661546,511.845151 42.0661546,506.507521 C42.0661546,506.332382 42.0624017,506.158179 42.0548959,505.984985 C42.8164527,505.415496 43.4773766,504.704066 44,503.894049" id="Fill-1"></path>
        </g>
    </g>
</svg>